<?xml version="1.0" encoding="utf-8"?>
<!-- Generator: Adobe Illustrator 16.0.0, SVG Export Plug-In . SVG Version: 6.00 Build 0)  -->
<!DOCTYPE svg PUBLIC "-//W3C//DTD SVG 1.1//EN" "http://www.w3.org/Graphics/SVG/1.1/DTD/svg11.dtd" [
	<!ENTITY ns_flows "http://ns.adobe.com/Flows/1.0/">
	<!ENTITY ns_extend "http://ns.adobe.com/Extensibility/1.0/">
	<!ENTITY ns_ai "http://ns.adobe.com/AdobeIllustrator/10.0/">
	<!ENTITY ns_graphs "http://ns.adobe.com/Graphs/1.0/">
]>
<svg version="1.1" id="Layer_1" xmlns:x="&ns_extend;" xmlns:i="&ns_ai;" xmlns:graph="&ns_graphs;"
	 xmlns="http://www.w3.org/2000/svg" xmlns:xlink="http://www.w3.org/1999/xlink" xmlns:a="http://ns.adobe.com/AdobeSVGViewerExtensions/3.0/"
	 x="0px" y="0px" width="1282.896px" height="254.915px" viewBox="0 0 1282.896 254.915"
	 enable-background="new 0 0 1282.896 254.915" xml:space="preserve">
<path fill="none" d="M349.551,83.004c0-2.47-2.344-3.876-7.029-4.218c-1.363-0.084-2.729-0.128-4.09-0.128l-5.623,0.128
	l-4.219,20.833c3.408-0.339,7.711-2.512,12.908-6.519C346.867,89.011,349.551,85.646,349.551,83.004z"/>
<path fill="none" d="M241.809,100.897c2.895-4.601,4.346-9.797,4.346-15.593c0-3.237-0.727-5.688-2.174-7.349
	c-1.449-1.661-3.025-2.492-4.729-2.492c-2.217,12.356-4.219,23.306-6.008,32.847C236.313,107.543,239.166,105.073,241.809,100.897z"
	/>
<path fill="none" d="M625.213,176.85l17.734-1.199c0-0.958,0.121-2.594,0.359-4.912c0.241-2.314,0.52-4.992,0.838-8.028
	c1.279-17.098,2.638-32.995,4.077-47.698l1.678-21.332l-3.835,0.24L625.213,176.85z"/>
<path fill="none" d="M1237.358,111.177c-9.75,0-18.541,4.794-26.368,14.382c-6.229,7.669-11.585,18.137-16.057,31.397
	c-3.517,10.867-5.274,21.093-5.274,30.679c0,6.393,2.718,11.188,8.149,14.381c1.597,1.121,3.436,1.678,5.513,1.678
	c7.351,0,13.863-2.516,19.536-7.549c5.67-5.034,10.424-11.224,14.259-18.575c3.835-7.348,6.751-15.221,8.75-23.609
	c1.997-8.389,2.996-16.018,2.996-22.89C1248.862,117.81,1245.028,111.177,1237.358,111.177z"/>
<path class="short" d="M353.533,173.1H124.897l-4.187,25.606h232.822c7.07,0,12.803-5.728,12.803-12.803
	C366.336,178.833,360.604,173.1,353.533,173.1z"/>
<path d="M95.402,173.1c-4.896,0-9.203-3.136-10.703-7.786L46.674,47.464c-3.586-11.136-13.86-18.621-25.56-18.621h-8.311
	C5.73,28.843,0,34.579,0,41.647C0,48.723,5.73,54.45,12.804,54.45h8.311c0.548,0,1.021,0.351,1.186,0.868l38.024,117.847
	c4.933,15.281,19.027,25.542,35.078,25.542h25.309l4.187-25.606H95.402z"/>
<path d="M104.48,213.453c-11.277,0-20.417,9.143-20.417,20.422c0,11.278,9.14,20.415,20.417,20.415
	c11.272,0,20.417-9.137,20.417-20.415C124.897,222.595,115.753,213.453,104.48,213.453z"/>
<path class="move" d="M331.714,213.453c-11.275,0-20.42,9.143-20.42,20.422c0,11.278,9.145,20.415,20.42,20.415
	c11.277,0,20.419-9.137,20.419-20.415C352.133,222.595,342.991,213.453,331.714,213.453z"/>
<path class="grow" d="M125.5,133.233c-0.938,0.683-1.98,1.194-3.131,1.534c-1.15,0.341-2.578,0.511-4.281,0.511c-1.705,0-4.262-1.022-7.67-3.067
	c-3.408-1.959-5.709-4.132-6.9-6.519l-9.715,19.044c6.219,7.841,13.08,11.759,20.578,11.759c10.139,0,18.533-2.981,25.178-8.947
	c6.986-6.219,10.48-14.101,10.48-23.645c0-7.924-2.045-14.271-6.135-19.043c-1.789-1.959-3.705-3.579-5.75-4.857
	c-2.045-1.278-3.943-2.512-5.688-3.707c-1.748-1.192-3.219-2.492-4.41-3.898c-1.195-1.406-1.789-3.237-1.789-5.496
	c0-2.256,1.191-4.365,3.578-6.327c1.023-0.851,2.045-1.534,3.068-2.045c1.021-0.511,2.064-0.767,3.131-0.767
	c1.064,0,2.064,0.575,3.004,1.726c0.936,1.15,1.404,2.664,1.404,4.537c0,1.875-0.213,3.665-0.639,5.368l18.916-5.496
	c0.17-1.448,0.361-2.768,0.576-3.962c0.211-1.192,0.318-2.429,0.318-3.707c0-5.282-1.66-9.286-4.984-12.014
	c-1.533-1.192-3.344-2.087-5.432-2.684c-2.09-0.595-4.793-0.895-8.115-0.895c-3.324,0-7.395,0.831-12.207,2.492
	c-4.814,1.662-9.246,3.92-13.291,6.774c-4.049,2.856-7.414,6.243-10.098,10.161c-2.684,3.92-4.025,8.224-4.025,12.909
	c0,4.687,2.385,9.16,7.156,13.42c1.959,1.875,4.111,3.643,6.455,5.305c2.342,1.66,4.516,3.303,6.518,4.92
	c2.002,1.619,3.686,3.323,5.049,5.112c1.361,1.79,2.045,3.771,2.045,5.943S127.629,131.7,125.5,133.233z"/>
<path class="hide" d="M156.621,111.698c-0.895,5.495-1.725,10.779-2.492,15.848c-0.766,5.07-1.258,8.585-1.469,10.544
	c-0.215,1.962-0.32,3.111-0.32,3.451c0,0.342,0,0.684,0,1.022c0,5.028,1.873,9.074,5.625,12.142
	c3.322,2.557,7.285,3.835,11.885,3.835c7.498,0,14.102-2.131,19.811-6.391c2.982-2.301,5.602-5.196,7.861-8.691
	c2.256-3.492,4.025-8.029,5.305-13.611c1.277-5.58,3.236-15.018,5.879-28.31c1.021-5.112,2.15-11.183,3.387-18.213
	c1.234-7.029,2.363-13.228,3.387-18.596l0.639-3.323l-19.811,1.278c-2.387,13.72-4.473,25.051-6.262,33.997
	c-0.684,3.495-1.342,6.924-1.982,10.289c-0.639,3.366-1.277,6.604-1.916,9.714c-0.639,3.111-1.15,5.539-1.533,7.285
	c-0.385,1.747-0.748,3.473-1.088,5.176c-0.342,1.705-0.83,3.367-1.469,4.984c-0.639,1.62-1.451,3.025-2.43,4.218
	c-0.98,1.194-2.088,1.789-3.322,1.789c-1.236,0-2.217-0.447-2.939-1.342c-0.725-0.895-1.086-2.192-1.086-3.897
	c0-1.704,0.639-5.496,1.916-11.375c0.426-1.959,1.32-6.178,2.684-12.654c0.596-3.066,1.279-6.432,2.047-10.096
	c0.766-3.663,1.789-8.563,3.066-14.698s3.023-14.442,5.24-24.923c-2.643,0.255-5.176,0.491-7.605,0.703
	c-2.428,0.214-4.9,0.448-7.412,0.703c-2.514,0.256-4.709,0.469-6.582,0.639c-0.342,1.534-1.449,7.157-3.324,16.871
	c-0.852,4.518-1.789,9.544-2.811,15.082C158.475,100.686,157.518,106.202,156.621,111.698z"/>
<path class="hide" d="M225.32,151.893c1.873-12.695,3.621-22.622,5.24-29.779h1.406c4.174,0,8.221-1.043,12.143-3.131
	c3.918-2.088,7.367-4.899,10.352-8.436c2.982-3.535,5.367-7.583,7.158-12.143c1.789-4.557,2.684-9.266,2.684-14.123
	c0-7.583-1.492-13.376-4.475-17.382c-1.705-2.215-3.896-3.982-6.582-5.304c-2.684-1.32-6.369-1.981-11.055-1.981
	c-4.688,0-11.717,1.406-21.088,4.218c-3.324,21.899-9.459,52.743-18.406,92.534L225.32,151.893z M239.252,75.463
	c1.703,0,3.279,0.831,4.729,2.492c1.447,1.662,2.174,4.112,2.174,7.349c0,5.795-1.451,10.992-4.346,15.593
	c-2.643,4.176-5.496,6.646-8.564,7.413C235.033,98.769,237.035,87.819,239.252,75.463z"/>
<path class="hide" d="M295.998,149.848l1.279-14.953l-19.045,3.067l4.475-24.156c2.641-0.084,5.025-0.17,7.156-0.256
	c2.129-0.084,4.174-0.147,6.135-0.192c1.959-0.041,3.408-0.105,4.346-0.191c0.426-2.47,0.787-4.877,1.088-7.221
	c0.297-2.343,0.617-4.749,0.957-7.221c-0.938,0.085-2.982,0.171-6.135,0.255c-3.152,0.086-7.072,0.256-11.758,0.511l4.602-23.517
	h8.818c4.43,0,7.924-0.127,10.48-0.383c0.256-1.362,0.596-2.939,1.021-4.729c0.426-1.789,0.852-3.599,1.279-5.432
	c0.426-1.832,0.936-3.727,1.533-5.688l-41.41,3.579l-17.127,93.045L295.998,149.848z"/>
<path class="hide" d="M319.004,150.871c0.768-4.174,1.832-9.755,3.195-16.743c1.363-6.985,2.385-12.439,3.068-16.359l1.662-0.512
	c0.254,3.068,3.662,15.382,10.225,36.938l20.32-7.157c-1.789-4.346-3.984-9.691-6.582-16.04c-2.6-6.347-5.559-13.101-8.883-20.258
	c6.219-3.323,11.459-8.094,15.721-14.315c2.045-3.067,3.662-6.283,4.857-9.649c1.191-3.365,1.789-6.497,1.789-9.394
	c0-2.896-0.256-5.324-0.768-7.285c-1.705-6.391-7.156-9.586-16.359-9.586c-12.27,0-23.348,1.534-33.23,4.601
	c-1.961,17.979-7.371,48.398-16.23,91.256L319.004,150.871z M332.809,78.786l5.623-0.128c1.361,0,2.727,0.044,4.09,0.128
	c4.686,0.341,7.029,1.748,7.029,4.218c0,2.642-2.684,6.007-8.053,10.097c-5.197,4.006-9.5,6.179-12.908,6.519L332.809,78.786z"/>
<path class="hide" d="M439.459,179.248c-1.281,5.434-4.157,10.706-8.629,15.819c-4.477,4.953-8.71,7.43-12.702,7.43
	c-4.956,0-7.432-4.111-7.432-12.346c0-8.226,2.234-19.053,6.71-32.475c1.919-6.071,4.153-12.104,6.714-18.097
	c2.553-5.992,5.229-11.385,8.028-16.178c2.791-4.794,5.633-8.708,8.509-11.745c2.875-3.033,5.633-4.554,8.267-4.554
	c2.637,0,4.915,2,6.831,5.991l32.118-8.628c0.157-1.116,0.241-2.157,0.241-3.116v-3.115c0-10.385-2.798-18.774-8.392-25.167
	c-5.75-6.231-12.702-9.347-20.852-9.347c-12.625,0-24.247,3.677-34.872,11.025c-10.629,7.351-19.775,16.979-27.444,28.881
	c-7.67,11.905-13.625,25.369-17.855,40.387c-4.238,15.021-6.352,30.6-6.352,46.737c0,16.142,3.355,29.163,10.065,39.068
	c6.391,9.269,14.698,13.902,24.928,13.902c10.864,0,21.489-4.394,31.877-13.183c11.661-9.905,21.093-23.251,28.283-40.027
	L439.459,179.248z"/>
<path class="hide" d="M598.365,61.563l-4.073,0.479c-2.718,0.161-7.67,0.52-14.859,1.079c-7.19,0.562-13.984,1.4-20.376,2.517
	c-2.875,11.504-5.233,22.732-7.068,33.676c-1.839,10.945-3.875,22.17-6.113,33.675l-24.207,2.876
	c2.553-13.422,7.751-36.75,15.581-69.987c-11.189,0-24.448-0.636-39.787-1.917c-3.678,35.794-14.065,95.716-31.159,179.762
	l37.869-7.91c5.432-27.323,9.984-51.131,13.661-71.424l23.969-2.157c-1.12,6.072-2.516,13.343-4.193,21.811
	c-1.678,8.471-3.355,17.018-5.032,25.645c-1.682,8.63-3.561,17.819-5.634,27.563l38.349-4.314
	c3.032-21.729,6.388-42.981,10.064-63.755C582.864,123.004,590.534,87.131,598.365,61.563z"/>
<path class="hide" d="M686.57,61.323c-15.501,3.038-38.03,5.596-67.592,7.671c-2.076,7.351-4.432,15.459-7.068,24.328
	c-2.638,8.868-5.355,18.058-8.15,27.563c-2.798,9.509-5.633,19.097-8.508,28.762c-2.875,9.669-6.593,22.013-11.146,37.031
	c-4.553,15.021-10.109,33.398-16.658,55.127c5.117-0.637,10.068-1.236,14.859-1.798c4.795-0.559,9.626-1.158,14.501-1.797
	c4.875-0.638,9.146-1.199,12.823-1.68l9.827-35.233h21.331c-1.278,12.307-2.795,26.126-4.553,41.466
	c3.992-0.636,8.428-1.355,13.303-2.157c4.871-0.797,9.585-1.517,14.142-2.157c4.553-0.636,9.227-1.355,14.021-2.155
	c1.436-36.272,3.193-75.896,5.271-118.883C683.933,95.838,685.131,77.143,686.57,61.323z M648.222,115.012
	c-1.439,14.703-2.798,30.601-4.077,47.698c-0.318,3.036-0.597,5.714-0.838,8.028c-0.238,2.318-0.359,3.954-0.359,4.912
	l-17.734,1.199l20.852-82.93l3.835-0.24L648.222,115.012z"/>
<path class="hide" d="M785.558,62.762c-4.955,23.65-8.229,39.391-9.827,47.218c-0.959,4.954-1.919,9.789-2.875,14.5
	c-0.959,4.715-1.839,9.228-2.637,13.542c-0.803,4.313-1.521,8.149-2.157,11.505c-1.92-8.149-5.436-26.444-10.545-54.888
	c-1.92-9.905-3.996-20.613-6.234-32.117c-14.702,0.641-23.649,0.959-26.844,0.959h-6.952c-1.436,0-3.274-0.079-5.512-0.239
	c-3.037,34.035-13.662,94.435-31.877,181.198l35.953-8.388c4.948-24.606,8.944-45.619,11.984-63.037
	c0.795-4.631,1.594-8.988,2.396-13.063c0.799-4.073,1.439-7.63,1.919-10.666c3.835,18.217,7.348,49.218,10.545,92.996
	c2.234-0.797,8.988-2.554,20.251-5.272c11.267-2.715,17.859-4.075,19.775-4.075c4.314-35.15,15.178-93.074,32.598-173.768
	L785.558,62.762z"/>
<path class="hide" d="M862.734,158.874l-4.553,24.209l26.126-3.835c-0.322,9.107-3.681,17.017-10.068,23.729
	c-2.718,2.875-5.835,5.151-9.348,6.831c-3.516,1.678-7.274,2.517-11.267,2.517c-3.996,0-7.512-2.157-10.545-6.473
	c-3.036-4.314-4.553-11.583-4.553-21.81c0.638-20.452,5.831-41.305,15.578-62.558c4.314-9.108,8.907-16.575,13.782-22.41
	c4.872-5.831,9.384-8.748,13.541-8.748c6.714,0,11.424,6.074,14.142,18.215l33.796-6.471c0-12.464-3.036-22.369-9.109-29.721
	c-3.036-3.835-6.948-6.91-11.742-9.228c-4.795-2.314-11.109-3.476-18.937-3.476c-7.831,0-17.057,2.558-27.683,7.669
	c-10.629,5.116-20.533,12.906-29.719,23.369c-9.193,10.468-16.819,23.53-22.892,39.188c-6.073,15.661-9.105,33.915-9.105,54.767
	c0,20.854,4.314,37.031,12.939,48.536c3.993,5.434,8.71,9.468,14.143,12.104c5.432,2.637,11.625,3.955,18.577,3.955
	c6.948,0,14.819-2.078,23.605-6.231c8.787-4.154,16.977-10.386,24.569-18.694c7.586-8.308,14.098-18.654,19.533-31.04
	c5.432-12.38,8.706-26.88,9.827-43.502C905.479,152.964,885.264,155.997,862.734,158.874z"/>
<path class="hide" d="M1025.721,140.659c1.915-9.588,4.032-20.972,6.351-34.155c2.315-13.182,4.433-24.806,6.352-34.873l1.197-6.232l-37.15,2.397
	c-4.476,25.729-8.388,46.978-11.742,63.755c-1.282,6.554-2.517,12.984-3.718,19.295c-1.198,6.313-2.396,12.386-3.594,18.216
	c-1.197,5.835-2.157,10.388-2.875,13.662c-0.722,3.276-1.402,6.513-2.04,9.706c-0.641,3.198-1.557,6.314-2.754,9.348
	c-1.198,3.038-2.722,5.673-4.557,7.909c-1.839,2.24-3.915,3.355-6.23,3.355c-2.318,0-4.157-0.839-5.512-2.517
	c-1.359-1.678-2.037-4.111-2.037-7.309c0-3.196,1.198-10.307,3.594-21.332c0.798-3.674,2.476-11.585,5.032-23.73
	c1.117-5.75,2.399-12.062,3.839-18.934c1.436-6.868,3.354-16.059,5.75-27.563c2.396-11.504,5.67-27.083,9.827-46.737
	c-4.956,0.479-9.706,0.921-14.263,1.317c-4.553,0.401-9.189,0.84-13.9,1.319c-4.714,0.479-8.83,0.88-12.343,1.198
	c-0.641,2.876-2.718,13.422-6.234,31.638c-1.597,8.472-3.354,17.898-5.271,28.283c-1.919,10.389-3.714,20.733-5.395,31.04
	c-1.678,10.305-3.234,20.214-4.674,29.719c-1.436,9.509-2.358,16.1-2.755,19.773c-0.402,3.679-0.601,5.835-0.601,6.472
	c0,0.642,0,1.282,0,1.918c0,9.43,3.513,17.017,10.549,22.769c6.23,4.795,13.662,7.191,22.288,7.191
	c14.061,0,26.444-3.995,37.15-11.983c5.593-4.315,10.505-9.745,14.742-16.3c4.23-6.549,7.549-15.057,9.948-25.525
	C1017.091,183.284,1020.765,165.585,1025.721,140.659z"/>
<path class="hide" d="M1048.968,71.39c-4.157,23.969-11.186,60.962-21.094,110.973c-4.311,21.894-9.028,42.106-14.138,60.64
	c0.322-0.158,5.992-0.958,17.017-2.397c11.024-1.438,18.771-2.157,23.247-2.157c3.992-22.687,15.102-80.371,33.316-173.05
	L1048.968,71.39z"/>
<path class="hide" d="M1173.122,99.194c0.637-2.876,1.318-6.27,2.036-10.187c0.722-3.914,1.477-7.707,2.278-11.384l2.637-13.183
	c-21.254,2.72-43.065,4.075-65.434,4.075c-8.472,0-16.859-0.319-25.166-0.958l-1.198,31.398c3.835,1.12,7.67,1.599,11.505,1.438
	c3.835-0.157,7.67,0,11.505,0.479c-4.477,34.357-13.183,81.892-26.126,142.611l44.102-6.952
	c2.554-18.372,7.029-47.695,13.421-87.961c2.879-18.217,5.754-33.475,8.629-45.78c3.513-0.636,7.109-1.157,10.787-1.558
	C1165.771,100.834,1169.444,100.152,1173.122,99.194z"/>
<path class="hide" d="M1275.465,75.945c-6.23-10.864-16.058-16.299-29.478-16.299c-16.299,0-31.88,7.513-46.739,22.53
	c-13.746,14.063-24.848,31.638-33.316,52.729c-8.472,21.091-12.702,40.745-12.702,58.963c0,16.777,3.513,29.562,10.545,38.349
	c6.388,7.992,15.102,11.984,26.126,11.984c13.102,0,26.764-5.593,40.986-16.779c6.867-5.43,13.46-12.063,19.774-19.894
	c6.308-7.827,11.863-16.694,16.658-26.604c4.79-9.906,8.585-20.771,11.384-32.599c2.794-11.822,4.193-22.607,4.193-32.355
	C1282.896,98.078,1280.417,84.734,1275.465,75.945z M1245.866,153.96c-1.999,8.389-4.915,16.262-8.75,23.609
	c-3.835,7.352-8.589,13.541-14.259,18.575c-5.673,5.033-12.186,7.549-19.536,7.549c-2.077,0-3.916-0.557-5.513-1.678
	c-5.432-3.193-8.149-7.988-8.149-14.381c0-9.586,1.758-19.812,5.274-30.679c4.472-13.261,9.827-23.729,16.057-31.397
	c7.827-9.588,16.618-14.382,26.368-14.382c7.67,0,11.504,6.633,11.504,19.894C1248.862,137.943,1247.863,145.572,1245.866,153.96z"
	/>
<line fill="none" stroke="#000000" stroke-width="0" stroke-linecap="round" stroke-linejoin="round" x1="124.897" y1="173.1" x2="120.711" y2="198.707"/>
</svg>
