<?xml version="1.0" encoding="utf-8"?>
<!-- Generator: Adobe Illustrator 16.0.0, SVG Export Plug-In . SVG Version: 6.00 Build 0)  -->
<!DOCTYPE svg PUBLIC "-//W3C//DTD SVG 1.1//EN" "http://www.w3.org/Graphics/SVG/1.1/DTD/svg11.dtd" [
	<!ENTITY ns_flows "http://ns.adobe.com/Flows/1.0/">
	<!ENTITY ns_extend "http://ns.adobe.com/Extensibility/1.0/">
	<!ENTITY ns_ai "http://ns.adobe.com/AdobeIllustrator/10.0/">
	<!ENTITY ns_graphs "http://ns.adobe.com/Graphs/1.0/">
]>
<svg version="1.1" id="Layer_1" xmlns:x="&ns_extend;" xmlns:i="&ns_ai;" xmlns:graph="&ns_graphs;"
	 xmlns="http://www.w3.org/2000/svg" xmlns:xlink="http://www.w3.org/1999/xlink" xmlns:a="http://ns.adobe.com/AdobeSVGViewerExtensions/3.0/"
	 x="0px" y="0px" width="538.15px" height="115.372px" viewBox="0 0 538.15 115.372" enable-background="new 0 0 538.15 115.372"
	 xml:space="preserve">
<g>
	<path fill="#FF8115" d="M66.556,88.748c-7.349,0-13.313,5.962-13.313,13.312s5.964,13.313,13.313,13.313
		c7.35,0,13.312-5.963,13.312-13.313S73.906,88.748,66.556,88.748z"/>
	<path fill="#FF8115" d="M110.93,88.748c-7.349,0-13.313,5.962-13.313,13.312s5.964,13.313,13.313,13.313
		s13.312-5.963,13.312-13.313S118.279,88.748,110.93,88.748z"/>
	<polygon fill="none" points="56.341,26.625 59.891,35.499 110.042,35.499 126.016,26.625 	"/>
	<polygon fill="none" points="122.397,44.374 94.067,44.374 78.092,53.249 118.87,53.249 	"/>
	<polygon fill="#F06E30" points="58.57,53.249 62.119,62.123 78.092,53.249 	"/>
	<polygon fill="#F06E30" points="56.341,26.625 126.016,26.625 141.991,17.749 44.374,17.749 47.922,26.625 55.02,44.374 
		63.44,44.374 94.067,44.374 110.042,35.499 59.891,35.499 	"/>
	<polygon fill="#FF8115" points="122.397,44.374 118.87,53.249 78.092,53.249 62.119,62.123 115.345,62.123 115.326,62.169 
		124.339,62.401 134.894,35.499 110.042,35.499 94.067,44.374 	"/>
	<polygon fill="#FF8115" points="138.438,26.625 141.991,17.749 126.016,26.625 	"/>
	<polygon fill="#F06E30" points="25.09,0 0,0 0,8.875 19.284,8.875 46.382,70.805 54.177,66.474 	"/>
	<polygon fill="#FF8115" points="56.156,70.999 54.177,66.474 46.382,70.805 50.35,79.872 124.242,79.872 124.242,70.999 	"/>
	<g>
		<g>
			<path fill="#FF8115" d="M154.739,65.952v1.067c0,0.415,0.056,0.683,0.172,0.801c0.287,0.949,0.646,1.527,1.076,1.734
				c0.43,0.209,1.018,0.312,1.764,0.312h2.065c0.516-0.059,0.946-0.207,1.291-0.445c0.344-0.236,0.659-0.77,0.947-1.601
				c0.056-0.059,0.086-0.325,0.086-0.801V17.826h10.067v57.11c-0.116,0.298-0.331,0.667-0.646,1.112
				c-0.316,0.444-0.688,0.875-1.119,1.29s-0.89,0.756-1.377,1.022c-0.488,0.267-0.961,0.4-1.419,0.4h-18.328
				c-0.46,0-0.933-0.134-1.42-0.4c-0.488-0.267-0.946-0.607-1.376-1.022s-0.804-0.846-1.119-1.29
				c-0.316-0.445-0.531-0.814-0.646-1.112v-57.11h9.981V65.952z"/>
			<path fill="#FF8115" d="M177.025,78.761V17.826h22.544c0.458,0,0.932,0.149,1.42,0.445c0.486,0.298,0.946,0.638,1.376,1.023
				c0.43,0.387,0.803,0.801,1.119,1.246c0.314,0.445,0.53,0.816,0.646,1.112v22.862c-0.172,1.543-0.445,2.802-0.817,3.781
				c-0.374,0.979-1.134,1.854-2.28,2.625c-0.86,0.534-1.678,0.875-2.453,1.023c-0.774,0.148-1.248,0.222-1.419,0.222h-9.465v26.598
				H177.025z M186.92,26.722v15.834h2.925c0.917,0,1.678-0.029,2.28-0.089c0.602-0.058,1.046-0.222,1.333-0.489
				c0.287-0.267,0.487-0.667,0.603-1.201c0.114-0.534,0.172-1.246,0.172-2.135v-8.984l-0.172-0.89
				c-0.288-0.948-0.646-1.526-1.076-1.735c-0.43-0.207-1.047-0.311-1.85-0.311H186.92z"/>
			<path fill="#FF8115" d="M208.946,17.826h21.684v9.341h-11.014v15.3h10.841v10.141h-11.1v16.457h11.272v9.696h-21.684V17.826z"/>
			<path fill="#FF8115" d="M235.448,78.761V17.737h22.458c0.458,0,0.932,0.149,1.419,0.445c0.487,0.297,0.947,0.638,1.377,1.023
				c0.43,0.387,0.803,0.801,1.119,1.246c0.314,0.445,0.53,0.816,0.645,1.112v22.506c-0.115,1.365-0.645,2.357-1.592,2.98
				c-0.946,0.623-2.08,1.143-3.398,1.557c-0.116,0.06-0.603,0.178-1.463,0.356l8.26,29.8h-10.239l-7.916-26.687v26.687H235.448z
				 M245.344,26.722v15.834h2.151c1.835,0,3.126-0.207,3.872-0.623c0.745-0.414,1.119-1.542,1.119-3.38v-8.984l-0.172-0.89
				c-0.229-0.948-0.703-1.512-1.419-1.69c-0.718-0.178-1.449-0.267-2.194-0.267H245.344z"/>
			<path fill="#FF8115" d="M292.668,78.761h-9.723c-1.493,0-2.998-0.045-4.518-0.134c-1.521-0.089-2.94-0.385-4.259-0.89
				c-1.32-0.503-2.495-1.289-3.528-2.356c-1.032-1.068-1.807-2.58-2.323-4.537l-0.43-1.602V35.617
				c0.057-0.474,0.287-1.259,0.688-2.357c0.4-1.097,0.917-2.297,1.549-3.603c0.63-1.304,1.333-2.653,2.108-4.047
				c0.774-1.393,1.549-2.669,2.323-3.825c0.774-1.157,1.506-2.104,2.194-2.847c0.688-0.741,1.261-1.112,1.721-1.112h14.284v9.43
				h-7.142c-0.517,0-1.22,0.653-2.108,1.957c-0.89,1.305-1.75,2.802-2.581,4.492c-0.833,1.69-1.549,3.351-2.151,4.981
				c-0.602,1.632-0.903,2.802-0.903,3.514v23.929l0.086,0.267c0.344,1.188,1.003,1.884,1.979,2.091
				c0.975,0.208,1.893,0.312,2.753,0.312h9.981V78.761z"/>
			<path fill="#FF8115" d="M307.553,52.608v26.153h-9.981V17.826h9.981v24.73h7.572v-24.73h10.067v60.936h-10.067V52.608H307.553z"
				/>
			<path fill="#FF8115" d="M348.424,78.761l-0.774-4.715h-7.486l-0.688,4.715h-9.465l8.863-60.846h10.498l8.776,60.846H348.424z
				 M344.122,49.316l-2.495,14.678h4.646L344.122,49.316z"/>
			<path fill="#FF8115" d="M362.965,17.826h9.379l8.088,25.708V17.826H390.5v60.936h-9.121l-8.518-28.733v28.733h-9.896V17.826z"/>
			<path fill="#FF8115" d="M410.376,78.761c-1.493,0-2.998-0.045-4.518-0.134c-1.521-0.089-2.94-0.385-4.259-0.89
				c-1.32-0.503-2.495-1.289-3.528-2.356c-1.032-1.068-1.807-2.58-2.323-4.537l-0.43-1.602V35.617
				c0.057-0.474,0.287-1.259,0.688-2.357c0.4-1.097,0.917-2.297,1.549-3.603c0.63-1.304,1.333-2.653,2.108-4.047
				c0.774-1.393,1.549-2.669,2.323-3.825c0.774-1.157,1.506-2.104,2.194-2.847c0.688-0.741,1.261-1.112,1.721-1.112h16.779v9.43
				h-9.637c-0.518,0-1.22,0.653-2.109,1.957c-0.89,1.305-1.75,2.802-2.581,4.492c-0.833,1.69-1.549,3.351-2.151,4.981
				c-0.602,1.632-0.903,2.802-0.903,3.514v23.929l0.086,0.267c0.344,1.188,1.003,1.884,1.979,2.091
				c0.975,0.208,1.893,0.312,2.753,0.312h0.774c0.458,0,0.86-0.045,1.205-0.134c0.344-0.089,0.517-0.4,0.517-0.934V52.252h-3.012
				v-9.696h12.993v36.206l-10.67,4.358v-4.358H410.376z"/>
			<path fill="#FF8115" d="M437.479,65.952v1.067c0,0.415,0.057,0.683,0.172,0.801c0.286,0.949,0.646,1.527,1.075,1.734
				c0.431,0.209,1.019,0.312,1.765,0.312h2.064c0.517-0.059,0.947-0.207,1.291-0.445c0.344-0.236,0.659-0.77,0.946-1.601
				c0.057-0.059,0.086-0.325,0.086-0.801V17.826h10.067v57.11c-0.115,0.298-0.33,0.667-0.646,1.112
				c-0.315,0.444-0.688,0.875-1.118,1.29s-0.89,0.756-1.377,1.022c-0.488,0.267-0.961,0.4-1.42,0.4h-18.327
				c-0.46,0-0.934-0.134-1.42-0.4c-0.488-0.267-0.946-0.607-1.377-1.022c-0.43-0.415-0.804-0.846-1.118-1.29
				c-0.316-0.445-0.531-0.814-0.646-1.112v-57.11h9.981V65.952z"/>
			<path fill="#FF8115" d="M459.765,17.826h10.584v60.936h-10.584V17.826z"/>
			<path fill="#FF8115" d="M503.647,17.826v9.341h-8.863v51.595h-10.411V27.167h-9.207v-9.341H503.647z"/>
			<path fill="#FF8115" d="M536.73,65.017c-0.832,1.928-1.807,3.914-2.925,5.96c-1.119,2.047-2.252,3.856-3.399,5.427
				c-1.148,1.572-2.095,2.357-2.839,2.357h-8.777c-0.516-0.118-1.104-0.563-1.764-1.334c-0.66-0.771-1.363-1.735-2.108-2.892
				c-0.746-1.156-1.492-2.416-2.237-3.78c-0.746-1.364-1.419-2.698-2.021-4.003c-0.603-1.304-1.105-2.476-1.506-3.514
				c-0.402-1.037-0.632-1.794-0.688-2.269V35.617c0.057-0.77,0.459-2.046,1.205-3.825c0.744-1.779,1.62-3.617,2.624-5.515
				c1.003-1.897,2.035-3.603,3.098-5.115c1.061-1.512,1.936-2.357,2.624-2.535l0.774-0.801h8.777c0.744,0,1.69,0.787,2.839,2.357
				c1.147,1.572,2.28,3.38,3.399,5.427c1.118,2.046,2.093,4.033,2.925,5.96c0.831,1.928,1.305,3.277,1.42,4.047V60.97
				C538.035,61.742,537.562,63.091,536.73,65.017z M521.501,32.459c-0.546,1.276-1.033,2.535-1.463,3.78
				c-0.431,1.246-0.789,2.402-1.075,3.47c-0.288,1.067-0.46,1.81-0.517,2.224v12.721c0.057,0.534,0.229,1.334,0.517,2.402
				c0.286,1.067,0.645,2.254,1.075,3.558c0.43,1.306,0.917,2.58,1.463,3.825c0.544,1.246,1.104,2.313,1.678,3.203
				c0.572-0.89,1.146-1.972,1.721-3.247c0.573-1.274,1.076-2.55,1.506-3.825c0.431-1.275,0.803-2.447,1.119-3.514
				c0.314-1.067,0.501-1.868,0.559-2.402V41.933c-0.058-0.474-0.244-1.23-0.559-2.269c-0.316-1.037-0.688-2.179-1.119-3.425
				c-0.43-1.245-0.933-2.504-1.506-3.78c-0.574-1.275-1.148-2.357-1.721-3.247C522.604,30.102,522.045,31.185,521.501,32.459z"/>
		</g>
	</g>
</g>
</svg>
