<?xml version="1.0" encoding="utf-8"?>
<!-- Generator: Adobe Illustrator 16.0.0, SVG Export Plug-In . SVG Version: 6.00 Build 0)  -->
<!DOCTYPE svg PUBLIC "-//W3C//DTD SVG 1.1//EN" "http://www.w3.org/Graphics/SVG/1.1/DTD/svg11.dtd" [
	<!ENTITY ns_flows "http://ns.adobe.com/Flows/1.0/">
	<!ENTITY ns_extend "http://ns.adobe.com/Extensibility/1.0/">
	<!ENTITY ns_ai "http://ns.adobe.com/AdobeIllustrator/10.0/">
	<!ENTITY ns_graphs "http://ns.adobe.com/Graphs/1.0/">
]>
<svg version="1.1" id="Layer_1" xmlns:x="&ns_extend;" xmlns:i="&ns_ai;" xmlns:graph="&ns_graphs;"
	 xmlns="http://www.w3.org/2000/svg" xmlns:xlink="http://www.w3.org/1999/xlink" xmlns:a="http://ns.adobe.com/AdobeSVGViewerExtensions/3.0/"
	 x="0px" y="0px" width="153.152px" height="112.129px" viewBox="0 0 153.152 112.129" enable-background="new 0 0 153.152 112.129"
	 xml:space="preserve">
<g>
	<g>
		<path d="M151.623,14.602c-1.187-1.373-2.89-2.126-4.685-2.126h-86.12l-1.183-7.274C59.115,2.187,56.529,0,53.491,0H39.463
			c-3.44,0-6.235,2.795-6.235,6.236c0,3.434,2.795,6.239,6.235,6.239h8.731l11.59,69.537c0.061,0.274,0.187,0.518,0.271,0.761
			c0.125,0.335,0.186,0.639,0.334,0.943c0.221,0.426,0.49,0.76,0.765,1.125c0.179,0.243,0.364,0.487,0.578,0.7
			c0.364,0.334,0.794,0.578,1.213,0.821c0.251,0.121,0.43,0.304,0.703,0.396c0.73,0.273,1.495,0.456,2.282,0.456h68.536
			c3.438,0,6.236-2.769,6.236-6.236c0-3.438-2.799-6.205-6.236-6.205H71.223l-1.035-6.236h70.515c3.103,0,5.719-2.282,6.175-5.354
			l6.206-43.622C153.357,17.762,152.81,15.971,151.623,14.602L151.623,14.602z M139.729,24.91l-1.764,12.477h-22.177V24.91H139.729z
			 M109.552,24.91v12.477H90.84V24.91H109.552z M109.552,43.626v12.438H90.84V43.626H109.552z M84.642,24.91v12.477H65.93
			c-0.339,0-0.609,0.095-0.913,0.179L62.914,24.91H84.642z M66.021,43.626h18.621v12.438H68.093L66.021,43.626z M115.788,56.064
			V43.626h21.294l-1.795,12.438H115.788z M115.788,56.064"/>
		<path d="M84.642,102.79c0,5.172-4.206,9.339-9.377,9.339c-5.142,0-9.335-4.167-9.335-9.339c0-5.141,4.193-9.339,9.335-9.339
			C80.436,93.451,84.642,97.649,84.642,102.79L84.642,102.79z M84.642,102.79"/>
		<path d="M140.702,102.79c0,5.172-4.198,9.339-9.339,9.339c-5.172,0-9.369-4.167-9.369-9.339c0-5.141,4.197-9.339,9.369-9.339
			C136.504,93.451,140.702,97.649,140.702,102.79L140.702,102.79z M140.702,102.79"/>
	</g>
	<polyline points="48.194,12.476 0,95.672 20.877,98.339 43.377,112.129 53.383,43.607 	"/>
</g>
</svg>
