<?xml version="1.0" encoding="utf-8"?>
<!-- Generator: Adobe Illustrator 16.0.0, SVG Export Plug-In . SVG Version: 6.00 Build 0)  -->
<!DOCTYPE svg PUBLIC "-//W3C//DTD SVG 1.1//EN" "http://www.w3.org/Graphics/SVG/1.1/DTD/svg11.dtd" [
	<!ENTITY ns_flows "http://ns.adobe.com/Flows/1.0/">
	<!ENTITY ns_extend "http://ns.adobe.com/Extensibility/1.0/">
	<!ENTITY ns_ai "http://ns.adobe.com/AdobeIllustrator/10.0/">
	<!ENTITY ns_graphs "http://ns.adobe.com/Graphs/1.0/">
]>
<svg version="1.1" id="Layer_1" xmlns:x="&ns_extend;" xmlns:i="&ns_ai;" xmlns:graph="&ns_graphs;"
	 xmlns="http://www.w3.org/2000/svg" xmlns:xlink="http://www.w3.org/1999/xlink" xmlns:a="http://ns.adobe.com/AdobeSVGViewerExtensions/3.0/"
	 x="0px" y="0px" width="209.275px" height="112.129px" viewBox="0 0 209.275 112.129" enable-background="new 0 0 209.275 112.129"
	 xml:space="preserve">
<g>
	<g>
		<path d="M207.746,14.602c-1.187-1.373-2.89-2.126-4.685-2.126h-86.12l-1.183-7.274C115.238,2.187,112.652,0,109.614,0H95.586
			c-3.44,0-6.235,2.795-6.235,6.236c0,3.434,2.795,6.239,6.235,6.239h8.731l11.59,69.537c0.061,0.274,0.187,0.518,0.271,0.761
			c0.125,0.335,0.186,0.639,0.334,0.943c0.221,0.426,0.49,0.76,0.765,1.125c0.179,0.243,0.364,0.487,0.578,0.7
			c0.364,0.334,0.794,0.578,1.213,0.821c0.251,0.121,0.43,0.304,0.703,0.396c0.73,0.273,1.495,0.456,2.282,0.456h68.536
			c3.438,0,6.236-2.769,6.236-6.236c0-3.438-2.799-6.205-6.236-6.205h-63.243l-1.035-6.236h70.515c3.103,0,5.719-2.282,6.175-5.354
			l6.206-43.622C209.48,17.762,208.933,15.971,207.746,14.602L207.746,14.602z M195.852,24.91l-1.764,12.477h-22.177V24.91H195.852z
			 M165.675,24.91v12.477h-18.712V24.91H165.675z M165.675,43.626v12.438h-18.712V43.626H165.675z M140.765,24.91v12.477h-18.712
			c-0.339,0-0.609,0.095-0.913,0.179l-2.103-12.655H140.765z M122.144,43.626h18.621v12.438h-16.549L122.144,43.626z
			 M171.911,56.064V43.626h21.294l-1.795,12.438H171.911z M171.911,56.064"/>
		<path d="M140.765,102.79c0,5.172-4.206,9.339-9.377,9.339c-5.142,0-9.335-4.167-9.335-9.339c0-5.141,4.193-9.339,9.335-9.339
			C136.559,93.451,140.765,97.649,140.765,102.79L140.765,102.79z M140.765,102.79"/>
		<path d="M196.825,102.79c0,5.172-4.198,9.339-9.339,9.339c-5.172,0-9.369-4.167-9.369-9.339c0-5.141,4.197-9.339,9.369-9.339
			C192.627,93.451,196.825,97.649,196.825,102.79L196.825,102.79z M196.825,102.79"/>
	</g>
	<polyline points="104.317,12.476 0,43.607 23,56.064 32,70.339 108,31.339 	"/>
</g>
</svg>
