<?xml version="1.0" encoding="utf-8"?>
<!-- Generator: Adobe Illustrator 16.0.0, SVG Export Plug-In . SVG Version: 6.00 Build 0)  -->
<!DOCTYPE svg PUBLIC "-//W3C//DTD SVG 1.1//EN" "http://www.w3.org/Graphics/SVG/1.1/DTD/svg11.dtd">
<svg version="1.1" id="Layer_1" xmlns="http://www.w3.org/2000/svg" xmlns:xlink="http://www.w3.org/1999/xlink" x="0px" y="0px"
	 width="209.275px" height="112.129px" viewBox="0 0 209.275 112.129" enable-background="new 0 0 209.275 112.129"
	 xml:space="preserve">
<g>
	<g>
		<path d="M207.746,14.602c-1.187-1.373-2.89-2.126-4.685-2.126h-86.12l-1.184-7.274C115.238,2.187,112.652,0,109.614,0H95.586
			c-3.439,0-6.234,2.795-6.234,6.236c0,3.434,2.795,6.239,6.234,6.239h8.731l11.59,69.537c0.061,0.274,0.187,0.518,0.271,0.762
			c0.125,0.334,0.186,0.639,0.334,0.942c0.221,0.427,0.489,0.761,0.765,1.125c0.179,0.243,0.364,0.487,0.578,0.7
			c0.363,0.334,0.794,0.578,1.213,0.82c0.251,0.121,0.43,0.305,0.703,0.396c0.729,0.273,1.495,0.456,2.282,0.456h68.535
			c3.438,0,6.236-2.769,6.236-6.235c0-3.438-2.799-6.205-6.236-6.205h-63.242l-1.035-6.236h70.515c3.104,0,5.719-2.282,6.175-5.354
			l6.206-43.623C209.48,17.762,208.933,15.971,207.746,14.602L207.746,14.602z M195.852,24.91l-1.765,12.477h-22.177V24.91H195.852z
			 M165.675,24.91v12.477h-18.712V24.91H165.675z M165.675,43.626v12.438h-18.712V43.626H165.675z M140.765,24.91v12.477h-18.712
			c-0.34,0-0.609,0.095-0.913,0.179l-2.104-12.655L140.765,24.91L140.765,24.91z M122.144,43.626h18.621v12.438h-16.55
			L122.144,43.626z M171.911,56.064V43.626h21.294l-1.795,12.438H171.911z"/>
		<path d="M140.765,102.79c0,5.172-4.206,9.339-9.377,9.339c-5.143,0-9.335-4.167-9.335-9.339c0-5.142,4.192-9.339,9.335-9.339
			C136.559,93.451,140.765,97.648,140.765,102.79L140.765,102.79z"/>
		<path d="M196.825,102.79c0,5.172-4.198,9.339-9.339,9.339c-5.172,0-9.369-4.167-9.369-9.339c0-5.142,4.197-9.339,9.369-9.339
			C192.627,93.451,196.825,97.648,196.825,102.79L196.825,102.79z"/>
	</g>
	<path d="M106.005,12.476c0,0-12.275-0.897-24.894,7.429S51.665,36.063,38.412,32.647S1.687,43.607,1.687,43.607
		s22.644,1.765,23,12.457c0.263,7.875,9,14.275,9,14.275s1.915-8.218,24.026-12.329c22.111-4.112,23.231-4.368,30.671-15.74
		s21.302-10.931,21.302-10.931"/>
</g>
<path fill="#FFFFFF" stroke="#000000" stroke-miterlimit="10" d="M51.551,56.398"/>
</svg>
