<?xml version="1.0" encoding="utf-8"?>
<!-- Generator: Adobe Illustrator 16.0.0, SVG Export Plug-In . SVG Version: 6.00 Build 0)  -->
<!DOCTYPE svg PUBLIC "-//W3C//DTD SVG 1.1//EN" "http://www.w3.org/Graphics/SVG/1.1/DTD/svg11.dtd" [
	<!ENTITY ns_flows "http://ns.adobe.com/Flows/1.0/">
	<!ENTITY ns_extend "http://ns.adobe.com/Extensibility/1.0/">
	<!ENTITY ns_ai "http://ns.adobe.com/AdobeIllustrator/10.0/">
	<!ENTITY ns_graphs "http://ns.adobe.com/Graphs/1.0/">
]>
<svg version="1.1" id="Layer_1" xmlns:x="&ns_extend;" xmlns:i="&ns_ai;" xmlns:graph="&ns_graphs;"
	 xmlns="http://www.w3.org/2000/svg" xmlns:xlink="http://www.w3.org/1999/xlink" xmlns:a="http://ns.adobe.com/AdobeSVGViewerExtensions/3.0/"
	 x="0px" y="0px" width="320.69px" height="260.57px" viewBox="0 0 320.69 260.57" enable-background="new 0 0 320.69 260.57"
	 xml:space="preserve">
<path fill="#029729" d="M150.319,200.438c-16.598,0-30.067,13.466-30.067,30.063c0,16.602,13.47,30.068,30.067,30.068
	c16.599,0,30.064-13.467,30.064-30.068C180.384,213.904,166.918,200.438,150.319,200.438z"/>
<path fill="#029729" d="M250.539,200.438c-16.599,0-30.067,13.466-30.067,30.063c0,16.602,13.469,30.068,30.067,30.068
	c16.598,0,30.064-13.467,30.064-30.068C280.604,213.904,267.137,200.438,250.539,200.438z"/>
<polygon fill="none" points="127.248,60.132 135.265,80.174 248.533,80.174 284.609,60.132 "/>
<polygon fill="none" points="276.438,100.219 212.453,100.219 176.372,120.264 268.472,120.264 "/>
<polygon fill="#00B02E" points="132.281,120.264 140.297,140.306 176.372,120.264 "/>
<polygon fill="#00B02E" points="127.248,60.132 284.609,60.132 320.69,40.086 100.22,40.086 108.234,60.132 124.265,100.219 
	143.282,100.219 212.453,100.219 248.533,80.174 135.265,80.174 "/>
<polygon fill="#029729" points="276.438,100.219 268.472,120.264 176.372,120.264 140.297,140.306 260.509,140.306 260.467,140.411 
	280.823,140.933 304.661,80.174 248.533,80.174 212.453,100.219 "/>
<polygon fill="#029729" points="312.665,60.132 320.69,40.086 284.609,60.132 "/>
<polygon fill="#00B02E" points="56.668,0 0,0 0,20.045 43.553,20.045 104.756,159.914 122.359,150.134 "/>
<polygon fill="#029729" points="126.831,160.352 122.359,150.134 104.756,159.914 113.717,180.393 280.604,180.393 280.604,160.352 
	"/>
</svg>
