<?xml version="1.0" encoding="utf-8"?>
<!-- Generator: Adobe Illustrator 16.0.0, SVG Export Plug-In . SVG Version: 6.00 Build 0)  -->
<!DOCTYPE svg PUBLIC "-//W3C//DTD SVG 1.1//EN" "http://www.w3.org/Graphics/SVG/1.1/DTD/svg11.dtd">
<svg version="1.1" id="Layer_1" xmlns="http://www.w3.org/2000/svg" xmlns:xlink="http://www.w3.org/1999/xlink" x="0px" y="0px"
	 width="209.3px" height="112.1px" viewBox="0 0 209.3 112.1" style="enable-background:new 0 0 209.3 112.1;" xml:space="preserve"
	>
<style type="text/css">
	.st0{fill:#FFFFFF;stroke:#000000;stroke-miterlimit:10;}
</style>
<g>
	<g>
		<path d="M207.7,14.6c-1.2-1.4-2.9-2.1-4.7-2.1h-86.1l-1.2-7.3c-0.5-3-3.1-5.2-6.1-5.2h-14c-3.4,0-6.2,2.8-6.2,6.2
			c0,3.4,2.8,6.2,6.2,6.2h8.7L115.9,82c0.1,0.3,0.2,0.5,0.3,0.8c0.1,0.3,0.2,0.6,0.3,0.9c0.2,0.4,0.5,0.8,0.8,1.1
			c0.2,0.2,0.4,0.5,0.6,0.7c0.4,0.3,0.8,0.6,1.2,0.8c0.3,0.1,0.4,0.3,0.7,0.4c0.7,0.3,1.5,0.5,2.3,0.5h68.5c3.4,0,6.2-2.8,6.2-6.2
			c0-3.4-2.8-6.2-6.2-6.2h-63.2l-1-6.2h70.5c3.1,0,5.7-2.3,6.2-5.4l6.2-43.6C209.5,17.8,208.9,16,207.7,14.6L207.7,14.6z
			 M195.9,24.9l-1.8,12.5h-22.2V24.9H195.9z M165.7,24.9v12.5H147V24.9H165.7z M165.7,43.6v12.4H147V43.6H165.7z M140.8,24.9v12.5
			h-18.7c-0.3,0-0.6,0.1-0.9,0.2L119,24.9L140.8,24.9L140.8,24.9z M122.1,43.6h18.6v12.4h-16.5L122.1,43.6z M171.9,56.1V43.6h21.3
			l-1.8,12.4H171.9z"/>
		<path d="M140.8,102.8c0,5.2-4.2,9.3-9.4,9.3c-5.1,0-9.3-4.2-9.3-9.3c0-5.1,4.2-9.3,9.3-9.3C136.6,93.5,140.8,97.6,140.8,102.8
			L140.8,102.8z"/>
		<path d="M196.8,102.8c0,5.2-4.2,9.3-9.3,9.3c-5.2,0-9.4-4.2-9.4-9.3c0-5.1,4.2-9.3,9.4-9.3C192.6,93.5,196.8,97.6,196.8,102.8
			L196.8,102.8z"/>
	</g>
	<path d="M106,12.5c0,0-12.3-0.9-24.9,7.4S51.7,36.1,38.4,32.6s-36.7,11-36.7,11s22.6,1.8,23,12.5c0.3,7.9,9,14.3,9,14.3
		s1.9-8.2,24-12.3c22.1-4.1,23.2-4.4,30.7-15.7s21.3-10.9,21.3-10.9"/>
</g>
<path class="st0" d="M51.6,56.4"/>
</svg>
